<svg xmlns="http://www.w3.org/2000/svg" viewBox="0 0 512 512">
  <rect width="512" height="512" rx="96" fill="#101112"/>
  <circle cx="256" cy="256" r="140" fill="#2D76FC"/>
  <path d="M 200 170 L 200 342 L 290 342 C 330 342 355 318 355 282 C 355 258 342 240 322 232 C 336 224 344 210 344 192 C 344 178 336 170 310 170 Z M 240 200 L 290 200 C 302 200 308 206 308 218 C 308 230 302 236 290 236 L 240 236 Z M 240 266 L 290 266 C 310 266 320 274 320 288 C 320 302 310 310 290 310 L 240 310 Z" fill="#ffffff"/>
</svg>
